# File created by Blade
# Date/Time:  Tue Sep 30 19:15:05 2014
# Frame Rate: 120.000 fps
#------------------------------------------------------
:FULLY-SPECIFIED
:DEGREES
1789
root -1.188498 32.990935 -3.777192 6.817355 -23.964677 -16.736257
Spine -0.319882 2.779503 8.778589
Head -2.893913 -22.727225 15.714281
LeftShoulder 19.169148 9.565870 19.077033
LeftArm 7.907383 -24.274380 -80.063676
LeftForeArm -131.075163 24.098452 -19.589438
LeftHand -0.000020 40.512039 20.522026
LeftHandThumb1 30.357831 13.997178 22.438692
RightShoulder -10.831903 -21.910879 -16.045887
RightArm 5.642597 -17.414450 73.496721
RightForeArm 21.323289 -9.918866 23.810776
RightHand 0.000011 -7.703870 14.637082
RightHandThumb1 30.482666 -12.916435 -20.793814
LeftUpLeg -9.246088 14.394469 6.658175
LeftLeg 19.373899 0.000000 0.000000
LeftFoot -20.689889 22.860077 -4.050690
LeftToeBase 3.867300 0.000000 0.000000
RightUpLeg -90.014258 -22.110266 6.625067
RightLeg 96.300400 -0.000000 0.000000
RightFoot 29.934698 -22.064975 -2.902116
RightToeBase 15.029700 -0.000000 0.000000
1790
root -1.187098 32.989035 -3.778693 6.811318 -23.938994 -16.700843
Spine -0.352187 2.757613 8.750606
Head -2.876372 -22.745884 15.713331
LeftShoulder 19.194913 9.577498 19.083978
LeftArm 7.923894 -24.278948 -79.999148
LeftForeArm -131.090726 24.054254 -19.568128
LeftHand -0.000036 40.513903 20.538976
LeftHandThumb1 30.357831 13.997178 22.438692
RightShoulder -10.843114 -21.885861 -16.049434
RightArm 5.590297 -17.434831 73.478354
RightForeArm 21.457702 -10.017607 23.872154
RightHand -0.000031 -7.767599 14.727824
RightHandThumb1 30.482666 -12.916435 -20.793814
LeftUpLeg -9.272936 14.410413 6.617791
LeftLeg 19.390200 -0.000000 -0.000000
LeftFoot -20.726858 22.838892 -4.153586
LeftToeBase 3.801500 -0.000000 -0.000000
RightUpLeg -89.988530 -22.132933 6.615579
RightLeg 96.188004 -0.000000 -0.000000
RightFoot 29.929479 -22.158401 -2.848874
RightToeBase 15.063000 0.000000 0.000000
1791
root -1.187398 32.988032 -3.778892 6.771764 -23.939212 -16.658681
Spine -0.339171 2.744185 8.706025
Head -2.876127 -22.740545 15.733062
LeftShoulder 19.219065 9.594221 19.100193
LeftArm 7.922385 -24.272457 -79.953650
LeftForeArm -131.112865 24.002434 -19.545560
LeftHand -0.000043 40.519070 20.620069
LeftHandThumb1 30.357831 13.997178 22.438692
RightShoulder -10.870924 -21.851492 -16.064196
RightArm 5.596088 -17.456191 73.494577
RightForeArm 21.551879 -10.061838 23.862423
RightHand 0.000007 -7.751433 14.619434
RightHandThumb1 30.482666 -12.916435 -20.793814
LeftUpLeg -9.253993 14.449387 6.589154
LeftLeg 19.400900 -0.000000 0.000000
LeftFoot -20.742672 22.767117 -4.209796
LeftToeBase 3.817800 -0.000000 -0.000000
RightUpLeg -89.930516 -22.134364 6.601824
RightLeg 96.071503 -0.000000 -0.000000
RightFoot 29.985026 -22.118664 -2.934248
RightToeBase 15.016700 -0.000000 -0.000000
1792
root -1.185898 32.986632 -3.780392 6.762501 -23.932330 -16.610746
Spine -0.369730 2.691568 8.665568
Head -2.846394 -22.695137 15.711028
LeftShoulder 19.252968 9.640598 19.124644
LeftArm 7.916199 -24.234340 -79.922597
LeftForeArm -131.153754 23.977041 -19.553591
LeftHand -0.000068 40.521298 20.629376
LeftHandThumb1 30.357831 13.997178 22.438692
RightShoulder -10.879155 -21.789036 -16.076181
RightArm 5.513357 -17.460186 73.509601
RightForeArm 21.651686 -10.149379 23.936353
RightHand -0.000019 -7.738061 14.554406
RightHandThumb1 30.482666 -12.916435 -20.793814
LeftUpLeg -9.272738 14.440592 6.546102
LeftLeg 19.407499 -0.000000 -0.000000
LeftFoot -20.752608 22.750980 -4.269033
LeftToeBase 3.830500 -0.000000 -0.000000
RightUpLeg -89.916247 -22.137002 6.602546
RightLeg 95.947197 -0.000000 -0.000000
RightFoot 30.065771 -22.082581 -3.037619
RightToeBase 14.899900 0.000000 0.000000
1793
root -1.183398 32.984633 -3.781792 6.716363 -23.908839 -16.571980
Spine -0.335559 2.653363 8.649805
Head -2.874661 -22.685154 15.693231
LeftShoulder 19.276496 9.651238 19.137127
LeftArm 7.906987 -24.216111 -79.900384
LeftForeArm -131.196322 23.951522 -19.562577
LeftHand -0.000094 40.522764 20.621404
LeftHandThumb1 30.357831 13.997178 22.438692
RightShoulder -10.912184 -21.742749 -16.081842
RightArm 5.415295 -17.483080 73.507274
RightForeArm 21.772283 -10.234418 23.981674
RightHand -0.000019 -7.714232 14.535251
RightHandThumb1 30.482666 -12.916435 -20.793814
LeftUpLeg -9.264071 14.456813 6.518996
LeftLeg 19.435600 -0.000000 0.000000
LeftFoot -20.757328 22.673472 -4.297939
LeftToeBase 3.735500 -0.000000 -0.000000
RightUpLeg -89.867760 -22.165843 6.608322
RightLeg 95.829399 0.000000 0.000000
RightFoot 30.047651 -22.157235 -3.035059
RightToeBase 14.806800 0.000000 0.000000
1794
root -1.179698 32.983035 -3.783492 6.687397 -23.883049 -16.538371
Spine -0.324512 2.808584 8.635049
Head -2.944308 -22.825575 15.731548
LeftShoulder 19.245229 9.470797 19.163162
LeftArm 7.902746 -24.179400 -79.923251
LeftForeArm -131.250586 23.952186 -19.597616
LeftHand 0.000033 40.534866 20.651227
LeftHandThumb1 30.357831 13.997178 22.438692
RightShoulder -10.861707 -21.884607 -16.100587
RightArm 5.333011 -17.458060 73.491812
RightForeArm 21.871763 -10.264565 23.936566
RightHand -0.000017 -7.726783 14.486425
RightHandThumb1 30.482666 -12.916435 -20.793814
LeftUpLeg -9.266627 14.396159 6.493426
LeftLeg 19.455000 -0.000000 -0.000000
LeftFoot -20.776020 22.678242 -4.376468
LeftToeBase 3.784700 -0.000000 -0.000000
RightUpLeg -89.832229 -22.196634 6.626843
RightLeg 95.696297 -0.000000 -0.000000
RightFoot 29.942503 -22.288645 -2.862123
RightToeBase 14.955900 -0.000000 -0.000000
1795
root -1.179998 32.981333 -3.785292 6.667756 -23.882783 -16.478487
Spine -0.348060 2.842104 8.567367
Head -2.960614 -22.830505 15.757942
LeftShoulder 19.265178 9.439962 19.205487
LeftArm 7.876414 -24.141502 -79.909147
LeftForeArm -131.296187 23.940133 -19.618114
LeftHand 0.000035 40.541000 20.617250
LeftHandThumb1 30.357831 13.997178 22.438692
RightShoulder -10.857502 -21.892351 -16.068850
RightArm 5.220464 -17.462608 73.469598
RightForeArm 21.984549 -10.349258 23.988581
RightHand 0.000043 -7.784696 14.528054
RightHandThumb1 30.482666 -12.916435 -20.793814
LeftUpLeg -9.281601 14.458699 6.454275
LeftLeg 19.477400 -0.000000 0.000000
LeftFoot -20.764558 22.516946 -4.424451
LeftToeBase 3.686800 0.000000 0.000000
RightUpLeg -89.837501 -22.195834 6.653835
RightLeg 95.582802 0.000000 0.000000
RightFoot 29.840993 -22.468353 -2.762269
RightToeBase 15.020400 -0.000000 -0.000000
1796
root -1.174698 32.978133 -3.786792 6.619342 -23.889214 -16.407952
Spine -0.327900 2.911088 8.523580
Head -2.984766 -22.864389 15.710230
LeftShoulder 19.280816 9.369871 19.222659
LeftArm 7.854349 -24.131038 -79.907940
LeftForeArm -131.324184 23.933889 -19.631525
LeftHand -0.000004 40.554540 20.701039
LeftHandThumb1 30.357831 13.997178 22.438692
RightShoulder -10.851958 -21.909993 -16.093388
RightArm 5.171360 -17.461805 73.470700
RightForeArm 22.059039 -10.362652 23.936249
RightHand -0.000045 -7.796389 14.367978
RightHandThumb1 30.482666 -12.916435 -20.793814
LeftUpLeg -9.276866 14.511872 6.387805
LeftLeg 19.498699 0.000000 0.000000
LeftFoot -20.769179 22.440553 -4.475979
LeftToeBase 3.702200 0.000000 0.000000
RightUpLeg -89.852837 -22.211908 6.714386
RightLeg 95.471100 -0.000000 -0.000000
RightFoot 29.838758 -22.639295 -2.863031
RightToeBase 14.714700 -0.000000 -0.000000
1797
root -1.169198 32.975035 -3.788492 6.597464 -23.879186 -16.350370
Spine -0.333333 2.926364 8.508430
Head -3.010651 -22.854605 15.648065
LeftShoulder 19.290913 9.348454 19.221757
LeftArm 7.824184 -24.097887 -79.899505
LeftForeArm -131.352505 23.921351 -19.640657
LeftHand 0.000002 40.588123 20.767080
LeftHandThumb1 30.357831 13.997178 22.438692
RightShoulder -10.853207 -21.911790 -16.096779
RightArm 5.129620 -17.419030 73.425433
RightForeArm 22.120416 -10.414196 23.975219
RightHand -0.000029 -7.827042 14.381843
RightHandThumb1 30.482666 -12.916435 -20.793814
LeftUpLeg -9.296881 14.561438 6.318153
LeftLeg 19.515900 -0.000000 -0.000000
LeftFoot -20.827091 22.407827 -4.568295
LeftToeBase 3.829700 -0.000000 -0.000000
RightUpLeg -89.912148 -22.240151 6.820856
RightLeg 95.376503 -0.000000 -0.000000
RightFoot 29.683791 -22.945981 -2.761188
RightToeBase 14.798900 0.000000 0.000000
1798
root -1.163498 32.972434 -3.791292 6.588736 -23.876647 -16.288533
Spine -0.354110 2.953297 8.482973
Head -3.037596 -22.843038 15.592397
LeftShoulder 19.279626 9.315486 19.221412
LeftArm 7.791529 -24.026260 -79.866139
LeftForeArm -131.392059 23.904549 -19.653910
LeftHand 0.000003 40.605153 20.813587
LeftHandThumb1 30.357831 13.997178 22.438692
RightShoulder -10.872097 -21.908196 -16.108493
RightArm 5.083193 -17.413855 73.398972
RightForeArm 22.185854 -10.456514 23.990966
RightHand -0.000023 -7.875447 14.403939
RightHandThumb1 30.482666 -12.916435 -20.793814
LeftUpLeg -9.326885 14.608368 6.249263
LeftLeg 19.524200 -0.000000 -0.000000
LeftFoot -20.824575 22.355044 -4.617515
LeftToeBase 3.704100 -0.000000 0.000000
RightUpLeg -90.009116 -22.258867 6.975953
RightLeg 95.272903 -0.000000 0.000000
RightFoot 29.553909 -23.268009 -2.734070
RightToeBase 14.620100 0.000000 0.000000
1799
root -1.157298 32.969233 -3.793892 6.580841 -23.869817 -16.219046
Spine -0.382099 2.975502 8.449114
Head -3.059981 -22.827818 15.555533
LeftShoulder 19.275888 9.275764 19.216669
LeftArm 7.730437 -23.964099 -79.866204
LeftForeArm -131.433530 23.914934 -19.687832
LeftHand -0.000075 40.583413 20.806454
LeftHandThumb1 30.357831 13.997178 22.438692
RightShoulder -10.900156 -21.906697 -16.128092
RightArm 5.089152 -17.416129 73.378666
RightForeArm 22.219406 -10.444569 23.931343
RightHand -0.000015 -7.819933 14.344088
RightHandThumb1 30.482666 -12.916435 -20.793814
LeftUpLeg -9.358018 14.658342 6.170842
LeftLeg 19.521099 -0.000000 0.000000
LeftFoot -20.804211 22.283729 -4.619270
LeftToeBase 3.702400 0.000000 0.000000
RightUpLeg -90.153461 -22.292178 7.183434
RightLeg 95.217796 0.000000 0.000000
RightFoot 29.444441 -23.546092 -2.797673
RightToeBase 14.600200 -0.000000 -0.000000
